<?xml version="1.0" encoding="utf-8"?>
<!-- Generator: Adobe Illustrator 17.0.0, SVG Export Plug-In . SVG Version: 6.00 Build 0)  -->
<!DOCTYPE svg PUBLIC "-//W3C//DTD SVG 1.1//EN" "http://www.w3.org/Graphics/SVG/1.1/DTD/svg11.dtd">
<svg version="1.1" id="Capa_1" xmlns="http://www.w3.org/2000/svg" xmlns:xlink="http://www.w3.org/1999/xlink" x="0px" y="0px"
	 width="443.752px" height="169.327px" viewBox="0 0 443.752 169.327" enable-background="new 0 0 443.752 169.327"
	 xml:space="preserve">
<g>
	<g>
		<g>
			<path fill="#0E807B" d="M35.45,48.628c0,10.348,11.738,13,25.621,14.766c16.281,2.145,30.166,7.195,30.166,24.108
				c0,13.504-10.476,26.125-32.186,26.125c-13.379,0-24.487-3.028-34.077-9.718c-1.262-0.758-1.262-1.387-0.504-2.774l2.396-4.039
				c0.507-0.886,0.886-1.265,1.515-1.265c0.379,0,0.758,0.128,1.39,0.507c8.078,5.551,18.554,8.457,28.019,8.457
				c11.613,0,23.729-3.788,23.729-16.913c0-10.476-9.468-13.885-26.002-16.156c-13.757-1.894-29.785-6.058-29.785-22.846
				c0-9.718,7.32-26.378,31.804-26.378c13.002,0,21.456,3.785,31.049,9.593c1.39,0.755,1.136,1.513,0.632,2.774l-2.398,3.914
				c-0.504,0.883-1.011,1.39-1.641,1.39c-0.253,0-0.632-0.128-1.136-0.507c-8.078-5.426-16.409-8.329-25.244-8.329
				C39.614,31.336,35.45,42.063,35.45,48.628z"/>
			<path fill="#0E807B" d="M111.045,25.907c0-1.513,0.504-2.019,2.019-2.019h6.058c1.515,0,1.894,0.507,1.894,2.019v84.313
				c0,1.515-0.379,2.019-1.894,2.019h-6.058c-1.515,0-2.019-0.504-2.019-2.019V25.907z"/>
			<path fill="#0E807B" d="M212.14,93.685c0.507-0.504,1.011-0.63,1.39-0.63c0.504,0,0.883,0.251,1.387,0.755l3.788,4.039
				c1.008,1.262,1.008,1.894-0.128,3.031c-8.078,8.078-20.824,13-33.069,13c-24.863,0-45.183-20.699-45.183-45.815
				c0-25.119,20.32-45.818,45.183-45.818c12.245,0,24.991,4.922,33.069,13c1.011,1.011,0.886,1.641-0.125,2.777l-3.66,4.039
				c-0.504,0.632-1.011,0.883-1.515,0.883c-0.379,0-0.883-0.251-1.387-0.755c-5.554-5.933-14.64-11.108-26.381-11.108
				c-19.688,0-35.086,17.922-35.086,36.982c0,19.058,15.398,36.98,35.086,36.98C197.249,105.044,206.209,99.869,212.14,93.685z"/>
			<path fill="#0E807B" d="M238.763,112.239c-1.515,0-2.019-0.504-2.019-2.019V25.907c0-1.513,0.504-2.019,2.019-2.019h56.166
				c1.39,0,1.894,0.507,1.894,2.019v4.671c0,1.515-0.504,2.019-1.894,2.019h-48.213v30.671h45.94c1.515,0,2.019,0.504,2.019,2.019
				v4.668c0,1.515-0.504,2.019-2.019,2.019h-45.94v31.554h48.213c1.515,0,1.894,0.507,1.894,2.019v4.671
				c0,1.515-0.379,2.019-1.894,2.019H238.763z"/>
			<path fill="#0E807B" d="M370.273,111.86c-0.632,1.262-1.265,2.019-2.273,2.019h-1.011c-1.008,0-1.513-0.758-2.398-2.019
				l-34.077-67.271l-7.446,65.631c-0.253,1.515-0.507,2.019-2.019,2.019h-6.186c-1.387,0-2.019-0.632-1.766-2.019l10.601-86.836
				c0.125-0.883,0.253-1.136,1.136-1.136h0.758c0.504,0,0.883,0.125,1.515,1.136l40.389,76.36l40.389-76.36
				c0.63-1.011,1.008-1.136,1.513-1.136h0.758c0.883,0,1.011,0.253,1.136,1.136l10.601,86.836c0.128,1.387-0.379,2.019-1.891,2.019
				h-6.186c-1.387,0-1.766-0.504-1.891-2.019l-7.323-65.759L370.273,111.86z"/>
		</g>
	</g>
	<rect x="44.593" y="135.129" fill="#B2DCDC" width="362.174" height="8.557"/>
	<circle fill="#B2DCDC" cx="187.415" cy="68.12" r="20.035"/>
</g>
</svg>
