<?xml version="1.0" encoding="utf-8"?>
<!-- Generator: Adobe Illustrator 17.0.0, SVG Export Plug-In . SVG Version: 6.00 Build 0)  -->
<!DOCTYPE svg PUBLIC "-//W3C//DTD SVG 1.1//EN" "http://www.w3.org/Graphics/SVG/1.1/DTD/svg11.dtd">
<svg version="1.1" id="Capa_1" xmlns="http://www.w3.org/2000/svg" xmlns:xlink="http://www.w3.org/1999/xlink" x="0px" y="0px"
	 width="76px" height="70px" viewBox="0 0 76 70" enable-background="new 0 0 76 70" xml:space="preserve">
<g>
	<rect x="16.5" y="25.5" fill="none" stroke="#10938A" stroke-miterlimit="10" width="45" height="38"/>
	<path fill="none" stroke="#10938A" stroke-miterlimit="10" d="M23.994,23.725c0-0.695-0.107-1.406-0.107-2.128
		c0-8.358,6.797-15.135,15.156-15.135s15.188,6.776,15.188,15.135c0,0.722-0.096,1.518-0.096,2.213"/>
	<path fill="none" stroke="#10938A" stroke-miterlimit="10" d="M41.486,45.837c0,0,0.046,6.382,0.032,6.474
		c-0.153,1.309-1.21,2.326-2.563,2.326c-1.353,0-2.377-1.017-2.529-2.326c-0.01-0.061,0.044-6.423,0.044-6.423
		c-1.997-0.953-3.391-2.991-3.391-5.351c0-3.269,2.645-5.921,5.918-5.921c3.269,0,5.843,2.652,5.843,5.921
		C44.84,42.856,43.69,44.867,41.486,45.837z"/>
</g>
</svg>
